<?xml version="1.0" encoding="utf-8"?>
<!-- Generator: Adobe Illustrator 21.1.0, SVG Export Plug-In . SVG Version: 6.00 Build 0)  -->
<svg version="1.0" id="Layer_1" xmlns="http://www.w3.org/2000/svg" xmlns:xlink="http://www.w3.org/1999/xlink" x="0px" y="0px"
	 viewBox="0 0 255 222.2" style="enable-background:new 0 0 255 222.2;" xml:space="preserve">
<g>
	<path d="M3,192.6c1.5,0.3,1.9,0.5,2.4,0.5c24.2,0,48.5,0,72.7,0c0.9,0,2.3-0.2,2.7-0.9c2.2-3.9,4.3-7.9,6.8-12.9
		c-21.5,0-41.6,0-62.9,0c13.8-27.8,27.2-54.7,40.6-81.6c0.4,0,0.8,0,1.2,0c20.6,41.3,41.2,82.6,62,124.5c1-1.4,1.5-1.9,1.8-2.6
		c15.9-32,31.9-64,47.8-95.9c0.4-0.9,1-2.1,0.7-2.8c-2.1-4.7-4.4-9.3-7-14.8c-14.5,29.1-28.4,57-42.3,85c-0.4,0-0.9-0.1-1.3-0.1
		C107.7,149.6,87.2,108.3,66.1,66C44.8,108.7,24,150.4,3,192.6z M233.3,179.7c-21.6,0-41.9,0-62.8,0c1.9,3.8,3.5,6.6,4.7,9.6
		c1.2,3,3.1,3.9,6.3,3.9c23-0.1,46-0.1,69-0.1c1.3,0,2.6-0.2,4.6-0.3c-31.6-63.5-62.9-126.3-94.6-189.9c-1.1,2.1-1.8,3.3-2.4,4.5
		c-15.6,31.4-31.3,62.8-46.9,94.2c-0.5,1-1.2,2.4-0.8,3.1c2.1,4.7,4.4,9.3,7.1,14.8c14.5-29.1,28.4-57.1,42.3-85c0.4,0,0.8,0,1.2,0
		C184.9,82.5,208.8,130.5,233.3,179.7z"/>
	<path d="M3,192.6C24,150.4,44.8,108.7,66.1,66c21.1,42.4,41.6,83.6,62.2,124.9c0.4,0,0.9,0.1,1.3,0.1c13.9-27.9,27.8-55.9,42.3-85
		c2.7,5.6,5,10.2,7,14.8c0.3,0.7-0.3,1.9-0.7,2.8c-15.9,32-31.8,64-47.8,95.9c-0.3,0.6-0.8,1.2-1.8,2.6
		c-20.9-41.9-41.4-83.2-62-124.5c-0.4,0-0.8,0-1.2,0c-13.4,26.9-26.8,53.8-40.6,81.6c21.3,0,41.4,0,62.9,0c-2.6,4.9-4.6,9-6.8,12.9
		c-0.4,0.6-1.8,0.9-2.7,0.9c-24.2,0-48.5,0-72.7,0C4.9,193.1,4.4,192.9,3,192.6z"/>
	<path d="M233.3,179.7c-24.5-49.2-48.4-97.2-72.3-145.2c-0.4,0-0.8,0-1.2,0c-13.9,28-27.9,55.9-42.3,85c-2.7-5.5-5-10.1-7.1-14.8
		c-0.3-0.8,0.3-2.2,0.8-3.1c15.6-31.4,31.3-62.8,46.9-94.2c0.6-1.2,1.3-2.4,2.4-4.5c31.7,63.6,63,126.5,94.6,189.9
		c-2,0.1-3.3,0.3-4.6,0.3c-23,0-46,0-69,0.1c-3.2,0-5.1-0.9-6.3-3.9c-1.2-3-2.8-5.8-4.7-9.6C191.4,179.7,211.7,179.7,233.3,179.7z"
		/>
</g>
</svg>
